<?xml version="1.0" encoding="utf-8"?>
<!-- Generator: Adobe Illustrator 22.0.0, SVG Export Plug-In . SVG Version: 6.00 Build 0)  -->
<svg version="1.1" id="Layer_1" xmlns="http://www.w3.org/2000/svg" xmlns:xlink="http://www.w3.org/1999/xlink" x="0px" y="0px"
	 viewBox="0 0 36.5 46" style="enable-background:new 0 0 36.5 46;" xml:space="preserve">
<style type="text/css">
	.st0{opacity:0.47;}
</style>
<title>logo</title>
<g>
	<g class="st0">
		<path d="M17.5,45.2h-4.8V18.5c0-0.5,0.4-0.9,0.9-0.9c0.5,0,0.9,0.4,0.9,0.9c0,0,0,0,0,0v25h1.3V3.4h-1.3v8.7H9.7V3.4H8.4v8.7H3.6
			V3.4H2.3v8.3c0,0.5-0.4,0.9-0.9,0.9s-0.9-0.4-0.9-0.9v-10h4.8v8.7h1.3V1.7h4.8v8.7h1.3V1.7h4.7V45.2z"/>
	</g>
	<path d="M23.6,45.2h-4.8V1.7h4.7v8.7h1.3V1.7h4.7v8.7H31V1.7h4.7v10c0,0.5-0.3,0.9-0.8,0.9c-0.5,0-0.9-0.3-0.9-0.8c0,0,0-0.1,0-0.1
		V3.4h-1.3v8.7h-4.8V3.4h-1.3v8.7h-4.7V3.4h-1.3v40.1h1.3v-25c0-0.5,0.4-0.9,0.9-0.9c0.5,0,0.9,0.4,0.9,0.9V45.2z"/>
</g>
</svg>
