<?xml version="1.0" encoding="utf-8"?>
<!-- Generator: Adobe Illustrator 22.0.0, SVG Export Plug-In . SVG Version: 6.00 Build 0)  -->
<svg version="1.1" id="Layer_1" xmlns="http://www.w3.org/2000/svg" xmlns:xlink="http://www.w3.org/1999/xlink" x="0px" y="0px"
	 viewBox="0 0 248.4 307.5" style="enable-background:new 0 0 248.4 307.5;" xml:space="preserve">
<style type="text/css">
	.st0{opacity:0.47;}
	.st1{fill:#F59947;}
</style>
<g>
	<g class="st0">
		<path class="st1" d="M118.3,307.5H85V121.1c0-3.3,2.7-6,6-6c3.3,0,6,2.7,6,6v174.5h9.3V15.6h-9.2v61.1H63.9V15.6h-9.2v61.1H21.5
			V15.6h-9.2v58.1c0,3.3-2.7,6-6,6c-3.3,0-6-2.7-6-6V3.6h33.2v61.1h9.2V3.6h33.2v61.1h9.2V3.6h33.2V307.5z"/>
	</g>
	<g>
		<path class="st1" d="M160.9,307.5h-33.3V3.6h33.2v61.1h9.2V3.6h33.2v61.1h9.2V3.6h33.2v70.1c0,3.3-2.7,6-6,6c-3.3,0-6-2.7-6-6
			V15.6h-9.2v61.1h-33.2V15.6H182v61.1h-33.2V15.6h-9.2v279.9h9.3V121.1c0-3.3,2.7-6,6-6c3.3,0,6,2.7,6,6V307.5z"/>
	</g>
</g>
</svg>
